<svg viewBox="0 0 48 48" xmlns="http://www.w3.org/2000/svg" xmlns:xlink="http://www.w3.org/1999/xlink"><defs><radialGradient cx="6.495%" cy="34.026%" fx="6.495%" fy="34.026%" r="193.294%" gradientTransform="matrix(.50857 .39026 -.21557 .9207 .105 .002)" id="b"><stop stop-color="#3A3897" offset="0%"/><stop stop-color="#A3A1FF" offset="100%"/></radialGradient><path d="M17.908.08l7.015 1.52 3.466 3.278 1.156 2.72c1.375 5.918-.633 8.904-6.025 8.957-4.456 0-6.85-4.159-7.922-5.838-1.486-2.4-9.078-8.798-15.46-.96.348-1.866 1.43-3.866 3.246-5.998L17.908.08z" id="a"/><radialGradient cx="24.739%" cy="9.253%" fx="24.739%" fy="9.253%" r="133.901%" gradientTransform="scale(.72033 1) rotate(43.098 .295 .214)" id="e"><stop stop-color="#3A3897" offset="0%"/><stop stop-color="#A3A1FF" offset="100%"/></radialGradient><path d="M.142 5.918C1.208 4.035 2.014 2.916 2.56 2.56c.546-.357 2.526-1.184 5.942-2.48 2.785.291 4.683.611 5.694.96 1.012.348 1.975 1.015 2.889 2 2.64 4.158 2.806 7.41.495 9.756-4.044 2.72-7.427-.72-8.335-2.48C6.603 4.507 3.568 3.04.142 5.919z" id="d"/><radialGradient cx="0%" cy="100%" fx="0%" fy="100%" r="156.028%" gradientTransform="scale(1 .99693) rotate(-50.227 .003 1.002)" id="g"><stop stop-color="#3A3897" offset="0%"/><stop stop-color="#A3A1FF" offset="100%"/></radialGradient></defs><g fill="none" fill-rule="evenodd"><g transform="translate(16.505 29.91)"><mask id="c" fill="#fff"><use xlink:href="#a"/></mask><use fill="url(#b)" xlink:href="#a"/><path d="M17.908.08l7.015 1.52 3.466 3.278 1.156 2.72c-1.98-1.707-5.062-2.56-9.243-2.56-6.272 0-10.95 6.238-22.86 6.238-1.76.8.22-1.706 5.942-7.517L17.908.08z" fill="#3A3897" opacity=".1" mask="url(#c)"/></g><g transform="translate(19.311 7.038)"><mask id="f" fill="#fff"><use xlink:href="#d"/></mask><use fill="url(#e)" xlink:href="#d"/><path d="M-.413 6.158C1.023 4.115 2.014 2.916 2.56 2.56c.546-.357 2.526-1.184 5.942-2.48 2.785.291 4.683.611 5.694.96 1.012.348 1.975 1.015 2.889 2-5.283-1.76-8.942-.907-10.978 2.558-1.574.194-3.747.381-6.52.56z" fill="#3A3897" opacity=".1" mask="url(#f)"/></g><path d="M22.613 0c5.006 0 9.6 3.359 13.782 10.077-4.567-3.252-9.354-3.146-14.36.32-3.054 2.399-4.044 4.718-4.87 7.038-.825 2.319-3.3 10.316 3.714 11.036 4.787.24 7.263-3.759 12.545-4.558 3.95-.459 6.19 1.52 6.767 2.319 2.86 3.465 4.814 7.224 5.86 11.276-.991-1.812-2.422-3.279-4.292-4.398-2.806-1.68-5.034-1.84-7.758-1.84-3.383 0-8.087 1.04-11.966 3.44-3.879 2.398-4.21 3.198-6.19 6.157-.893 1.335-2.31 3.04-4.044 4.239-1.733 1.04-2.31 1.04-5.116 1.04-3.549 0-7.593-3.44-6.437-8.078C10.894.88 17.743 0 22.613 0z" fill="url(#g)"/></g></svg>
