<svg width="20" height="20" fill="none" xmlns="http://www.w3.org/2000/svg">
    <g clip-path="url(#clip0)">
        <mask id="a" maskUnits="userSpaceOnUse" x="7" y="12" width="14" height="8">
            <path d="m14.806 12.909 3.022.654 1.494 1.411.498 1.17c.592 2.548-.273 3.833-2.596 3.856-1.92 0-2.951-1.79-3.413-2.513-.64-1.033-3.911-3.786-6.66-.413.15-.803.616-1.664 1.398-2.582l6.257-1.583z" fill="#fff"/>
        </mask>
        <g mask="url(#a)">
            <path d="m14.806 12.909 3.022.654 1.494 1.411.498 1.17c.592 2.548-.273 3.833-2.596 3.856-1.92 0-2.951-1.79-3.413-2.513-.64-1.033-3.911-3.786-6.66-.413.15-.803.616-1.664 1.398-2.582l6.257-1.583z" fill="url(#paint0_radial)"/>
            <path opacity=".1" fill-rule="evenodd" clip-rule="evenodd" d="m14.806 12.909 3.022.654 1.494 1.411.498 1.17c-.854-.734-2.181-1.1-3.983-1.1-2.702 0-4.717 2.684-9.848 2.684-.759.344.095-.734 2.56-3.236l6.257-1.583z" fill="#3A3897" fill-opacity=".1"/>
        </g>
        <mask id="b" maskUnits="userSpaceOnUse" x="8" y="3" width="9" height="6">
            <path d="M8.36 5.577c.46-.81.807-1.293 1.043-1.446.235-.154 1.088-.51 2.56-1.067 1.2.125 2.017.263 2.453.413.435.15.85.437 1.244.86 1.138 1.79 1.209 3.19.213 4.2-1.742 1.17-3.2-.31-3.59-1.067-1.139-2.502-2.446-3.133-3.922-1.893z" fill="#fff"/>
        </mask>
        <g mask="url(#b)">
            <path d="M8.36 5.577c.46-.81.807-1.293 1.043-1.446.235-.154 1.088-.51 2.56-1.067 1.2.125 2.017.263 2.453.413.435.15.85.437 1.244.86 1.138 1.79 1.209 3.19.213 4.2-1.742 1.17-3.2-.31-3.59-1.067-1.139-2.502-2.446-3.133-3.922-1.893z" fill="url(#paint1_radial)"/>
            <path opacity=".1" fill-rule="evenodd" clip-rule="evenodd" d="M8.122 5.68c.618-.88 1.045-1.396 1.28-1.55.236-.153 1.089-.508 2.56-1.066 1.2.125 2.018.263 2.454.413.435.15.85.437 1.244.86-2.276-.757-3.852-.39-4.73 1.102-.677.083-1.614.164-2.808.24z" fill="#3A3897" fill-opacity=".1"/>
        </g>
        <path fill-rule="evenodd" clip-rule="evenodd" d="M9.722 0c2.157 0 4.136 1.446 5.938 4.337-1.968-1.4-4.03-1.354-6.187.138-1.315 1.033-1.742 2.031-2.098 3.03-.355.998-1.422 4.44 1.6 4.75 2.062.103 3.129-1.618 5.405-1.962 1.701-.198 2.666.654 2.915.998 1.232 1.492 2.074 3.11 2.524 4.854-.426-.78-1.043-1.412-1.848-1.894-1.21-.723-2.17-.791-3.343-.791-1.457 0-3.484.447-5.155 1.48-1.671 1.033-1.813 1.377-2.667 2.65-.384.575-.995 1.308-1.742 1.825-.746.447-.995.447-2.204.447-1.529 0-3.271-1.48-2.773-3.476C4.673.378 7.624 0 9.722 0z" fill="url(#paint2_radial)"/>
    </g>
    <defs>
        <radialGradient id="paint0_radial" cx="0" cy="0" r="1" gradientUnits="userSpaceOnUse" gradientTransform="matrix(19.97198 12.2706 -13.44028 21.87577 8.75 13.036)">
            <stop stop-color="#3A3897"/>
            <stop offset="1" stop-color="#A3A1FF"/>
        </radialGradient>
        <radialGradient id="paint1_radial" cx="0" cy="0" r="1" gradientUnits="userSpaceOnUse" gradientTransform="matrix(13.5714 8.57153 -10.80508 17.1078 8.571 4.822)">
            <stop stop-color="#3A3897"/>
            <stop offset="1" stop-color="#A3A1FF"/>
        </radialGradient>
        <radialGradient id="paint2_radial" cx="0" cy="0" r="1" gradientUnits="userSpaceOnUse" gradientTransform="matrix(20 -20.17854 20.25518 20.07596 0 20.179)">
            <stop stop-color="#3A3897"/>
            <stop offset="1" stop-color="#A3A1FF"/>
        </radialGradient>
        <clipPath id="clip0">
            <path fill="#fff" d="M0 0h20v20H0z"/>
        </clipPath>
    </defs>
</svg>
