<svg width="15" height="15" fill="none" xmlns="http://www.w3.org/2000/svg">
    <path d="M13.242 6.818l.938-.527a.694.694 0 0 0 .322-.791c-.322-1.23-.996-2.344-1.875-3.252-.234-.205-.586-.264-.85-.117l-.937.557a5.197 5.197 0 0 0-.967-.557V1.047c0-.293-.234-.615-.527-.674a7.28 7.28 0 0 0-3.721 0 .687.687 0 0 0-.527.674V2.13c-.293.117-.733.38-.967.557l-.938-.557c-.263-.147-.615-.088-.85.117C1.466 3.156.792 4.27.47 5.5a.694.694 0 0 0 .322.791l.938.527c-.03.176-.03.41-.03.557 0 .176 0 .41.03.557l-.938.556a.694.694 0 0 0-.322.791c.322 1.23.996 2.344 1.875 3.252.234.205.586.264.85.117l.937-.556c.234.176.674.44.967.556v1.084c0 .293.234.616.527.674a7.28 7.28 0 0 0 3.72 0 .687.687 0 0 0 .528-.674v-1.084c.293-.117.732-.38.967-.556l.937.556c.264.147.616.088.85-.117.879-.908 1.553-2.021 1.875-3.252a.694.694 0 0 0-.322-.79l-.938-.557c.03-.352.03-.733 0-1.114zM11.69 8.693l1.29.733c-.176.527-.645 1.289-.997 1.699l-1.289-.732c-.937.79-1.054.878-2.226 1.289v1.494c-.264.03-.703.088-.967.088-.293 0-.732-.059-.996-.088v-1.494c-1.172-.41-1.318-.498-2.227-1.29l-1.289.733c-.351-.41-.82-1.172-.996-1.7l1.29-.732c-.235-1.23-.235-1.377 0-2.607l-1.29-.732c.235-.616.557-1.202.996-1.7l1.29.733c.937-.791 1.054-.88 2.226-1.29V1.605c.264-.03.703-.088.996-.088.264 0 .703.058.967.088v1.494c1.172.41 1.318.498 2.226 1.289l1.29-.733c.351.41.82 1.172.995 1.7l-1.288.732c.234 1.23.234 1.377 0 2.607zM7.5 4.563c-1.553 0-2.813 1.289-2.813 2.812A2.813 2.813 0 0 0 7.5 10.188c1.523 0 2.813-1.26 2.813-2.813 0-1.523-1.29-2.813-2.813-2.813zm0 4.218a1.388 1.388 0 0 1-1.406-1.406c0-.762.615-1.406 1.406-1.406.762 0 1.406.644 1.406 1.406 0 .791-.644 1.406-1.406 1.406z" fill="currentColor"/>
</svg>
