<svg width="14" height="14" fill="none" xmlns="http://www.w3.org/2000/svg"><path d="M.5 2.047V8.14c0 .355.254.609.61.609h2.03c.33 0 .61-.254.61-.61V2.048c0-.33-.28-.61-.61-.61H1.11c-.356 0-.61.28-.61.61zm1.016 5.078c0-.33.254-.61.609-.61.33 0 .61.28.61.61 0 .355-.28.61-.61.61a.587.587 0 0 1-.61-.61zm6.906 6.5c.61 0 1.828-.203 1.828-2.057 0-1.066-.66-1.675-.863-2.412h2.59c.838 0 1.498-.685 1.523-1.472 0-.457-.203-.94-.508-1.245.254-.584.203-1.421-.228-2.005.203-.66 0-1.473-.432-1.905.127-.457.076-.838-.152-1.142C11.672.65 10.377.625 9.285.625H9.21C7.99.65 7 1.082 6.188 1.438c-.407.177-.94.406-1.346.406-.153.025-.28.152-.28.304v5.434c0 .076.026.178.077.229 1.015.99 1.447 2.03 2.26 2.869.38.38.507.94.66 1.498.101.457.33 1.447.863 1.447z" fill="currentColor"/></svg>