<svg width="12" height="12" fill="none" xmlns="http://www.w3.org/2000/svg">
    <path d="M11.383 4.5a.309.309 0 0 0 .305-.305v-.61a.328.328 0 0 0-.305-.304h-2.54V.742A.328.328 0 0 0 8.54.438h-.61a.309.309 0 0 0-.304.304v3.149c0 .355.254.609.61.609h3.148zm-7.008-.61V.743A.328.328 0 0 0 4.07.438h-.61a.309.309 0 0 0-.304.304v2.54H.617a.309.309 0 0 0-.304.304v.61c0 .177.126.304.304.304h3.149c.33 0 .609-.254.609-.61zm0 7.618V8.359c0-.33-.28-.609-.61-.609H.618a.309.309 0 0 0-.304.305v.61c0 .177.126.304.304.304h2.54v2.539c0 .178.126.305.304.305h.61a.309.309 0 0 0 .304-.305zm4.469 0v-2.54h2.539a.309.309 0 0 0 .305-.304v-.61a.328.328 0 0 0-.305-.304H8.234a.602.602 0 0 0-.609.61v3.148c0 .178.127.305.305.305h.61a.309.309 0 0 0 .304-.305z" fill="currentColor"/>
</svg>
