<svg width="14" height="14" fill="none" xmlns="http://www.w3.org/2000/svg">
    <path d="M.438 5.148c0 .206.146.352.351.352h.703a.356.356 0 0 0 .352-.352v-2.93h2.93a.356.356 0 0 0 .351-.35v-.704a.378.378 0 0 0-.352-.351H1.141a.694.694 0 0 0-.704.703v3.632zm8.437-3.984v.703c0 .205.146.352.352.352h2.93v2.93c0 .205.146.351.35.351h.704a.356.356 0 0 0 .351-.352V1.516a.713.713 0 0 0-.703-.704H9.227a.356.356 0 0 0-.352.352zm4.336 8.086h-.703a.356.356 0 0 0-.352.352v2.93h-2.93a.356.356 0 0 0-.351.35v.704c0 .205.146.351.352.351h3.632a.694.694 0 0 0 .704-.703V9.602a.378.378 0 0 0-.352-.352zm-8.086 4.336v-.703a.378.378 0 0 0-.352-.352h-2.93v-2.93a.378.378 0 0 0-.35-.351H.788a.356.356 0 0 0-.352.352v3.632c0 .41.293.704.704.704h3.632a.356.356 0 0 0 .352-.352z" fill="currentColor"/>
</svg>
