<svg width="12" height="13" fill="none" xmlns="http://www.w3.org/2000/svg">
    <path d="M11.063.5a1.26 1.26 0 0 0-.493.117c-1.195.54-2.062.703-2.789.703-1.547 0-2.46-.797-4.242-.797-.656 0-1.453.118-2.46.422A.527.527 0 0 0 .562.5.555.555 0 0 0 0 1.063v11.156a.27.27 0 0 0 .281.281h.563c.14 0 .281-.117.281-.281V9.852c.867-.282 1.617-.399 2.297-.399 1.898 0 3.234.797 5.133.797.82 0 1.758-.14 2.906-.586.328-.117.539-.398.539-.726V1.296C12 .805 11.555.5 11.062.5zm-.188 8.203c-.844.281-1.594.422-2.32.422-1.758 0-3-.797-5.133-.797a9.07 9.07 0 0 0-2.32.328V2.117c.937-.328 1.734-.469 2.437-.469 1.547 0 2.461.797 4.242.797.938 0 1.922-.234 3.094-.726v6.984z" fill="currentColor"/>
</svg>
