<svg width="24" height="24" viewBox="0 0 24 24" fill="none" xmlns="http://www.w3.org/2000/svg"><path fill-rule="evenodd" clip-rule="evenodd" d="M12 22c5.523 0 10-4.477 10-10S17.523 2 12 2 2 6.477 2 12s4.477 10 10 10zm7.865-11.491a1.012 1.012 0 00-.153.033c-.979.295-2.055.522-3.228.68-.12-2.881-.895-5.251-1.833-6.867 2.666.948 4.687 3.285 5.214 6.154zm.117 2.038c-.217 3.293-2.378 6.048-5.331 7.098.887-1.528 1.628-3.73 1.808-6.402a23.817 23.817 0 003.523-.696zm-5.49-1.126C14.367 7.166 12.904 4 12 4c-.904 0-2.367 3.166-2.492 7.42.794.053 1.624.08 2.492.08.868 0 1.698-.026 2.492-.08v.001zm-6.95 1.821a23.83 23.83 0 01-3.524-.695c.217 3.293 2.378 6.048 5.331 7.098-.887-1.528-1.628-3.73-1.808-6.403h.001zm-.026-2.02c.12-2.881.895-5.251 1.833-6.867-2.666.948-4.687 3.285-5.214 6.154.051.007.102.018.153.033 1.057.31 2.136.538 3.228.68zm6.932 2.206A39.82 39.82 0 0112 13.5c-.847 0-1.663-.024-2.449-.072C9.828 17.247 11.157 20 12 20c.843 0 2.172-2.752 2.448-6.572z" fill="currentColor"/></svg>
