<svg width="16" height="16" fill="none" xmlns="http://www.w3.org/2000/svg"><path d="M4.844 2.87l4.062-.026v2.844c0 .228.178.406.406.406h2.844v1.015h1.219V4.977c-.025-.254-.178-.66-.38-.864l-2.108-2.107c-.203-.203-.61-.381-.864-.381l-5.585.025a.802.802 0 0 0-.813.813v4.646h1.219V2.87zm5.281.075l1.93 1.93h-1.93v-1.93zM7.281 8.328a.418.418 0 0 0-.406.406v.407c0 .228.178.406.406.406H9.72a.418.418 0 0 0 .406-.406v-.407a.437.437 0 0 0-.406-.406H7.28zm4.875 5.078H4.844v-2.64H3.625v3.046c0 .458.355.813.813.813h8.125a.818.818 0 0 0 .812-.813v-3.046h-1.219v2.64zm3.25-5.078h-3.25a.418.418 0 0 0-.406.406v.407c0 .228.178.406.406.406h3.25a.418.418 0 0 0 .406-.406v-.407a.437.437 0 0 0-.406-.406zM5.25 9.141v-.407a.437.437 0 0 0-.406-.406h-3.25a.418.418 0 0 0-.407.406v.407c0 .228.178.406.407.406h3.25a.418.418 0 0 0 .406-.406z" fill="currentColor"/></svg>