<svg width="16" height="16" viewBox="0 0 16 16" fill="none" xmlns="http://www.w3.org/2000/svg"><path d="M6.784 7.39a.418.418 0 0 0-.407.407v.406c0 .229.178.406.407.406H9.22a.418.418 0 0 0 .406-.406v-.406a.437.437 0 0 0-.406-.406H6.784zm8.125 0h-3.25a.418.418 0 0 0-.407.407v.406c0 .229.178.406.407.406h3.25a.418.418 0 0 0 .406-.406v-.406a.437.437 0 0 0-.406-.406zm-10.157.813v-.406a.437.437 0 0 0-.406-.406h-3.25a.418.418 0 0 0-.406.406v.406c0 .229.178.406.406.406h3.25a.418.418 0 0 0 .406-.406zM7.76 11.095l-1.828 1.828c-.178.204-.05.534.229.534h1.244v2.132c0 .153.127.305.304.305h.61a.328.328 0 0 0 .305-.305v-2.133h1.218c.28 0 .406-.33.229-.533l-1.828-1.828a.353.353 0 0 0-.483 0zM8.243 4.905l1.828-1.828c.178-.203.05-.534-.229-.534H8.598V.411a.309.309 0 0 0-.305-.305h-.609a.328.328 0 0 0-.305.305v2.132H6.161c-.28 0-.407.33-.229.534L7.76 4.905a.353.353 0 0 0 .483 0z" fill="currentColor"/></svg>
