<svg width="14" height="10" viewBox="0 0 14 10" fill="currentColor" xmlns="http://www.w3.org/2000/svg">
    <path d="M13.246 3.475c-.584.457-1.32 1.015-3.91 2.894C8.828 6.75 7.889 7.588 7 7.588c-.914 0-1.828-.838-2.361-1.219C2.049 4.49 1.312 3.932.729 3.475c-.102-.077-.229 0-.229.127v5.18C.5 9.466 1.033 10 1.719 10H12.28a1.22 1.22 0 0 0 1.219-1.219v-5.18c0-.126-.152-.203-.254-.126zM7 6.75c.584.025 1.422-.736 1.854-1.041 3.377-2.438 3.63-2.666 4.392-3.275a.578.578 0 0 0 .254-.483V1.47c0-.66-.559-1.219-1.219-1.219H1.72A1.218 1.218 0 0 0 .5 1.469v.482c0 .203.076.381.229.483.761.609 1.015.837 4.392 3.275.432.305 1.27 1.066 1.879 1.041z"/>
    <path d="m13.246 3.475-.06-.08h-.002l.062.08zm-3.91 2.894-.059-.08h-.001l.06.08zm-4.697 0-.06.081h.002l.058-.08zM.729 3.475l.061-.08-.06.08zM7 6.75l.004-.1h-.008l.004.1zm1.854-1.041.057.082h.001l-.058-.082zm4.392-3.275-.056-.084-.006.006.062.078zm-12.517 0 .062-.079-.007-.005-.055.084zM5.12 5.709l-.058.081.058-.081zm8.064-2.313c-.583.456-1.318 1.013-3.908 2.892l.118.162c2.59-1.879 3.327-2.438 3.913-2.897l-.123-.157zm-3.91 2.893c-.26.195-.613.493-1.017.748-.405.254-.843.45-1.258.45v.2c.473 0 .95-.221 1.364-.481.414-.26.784-.571 1.032-.757l-.12-.16zM7 7.488c-.428 0-.866-.197-1.27-.451-.408-.256-.756-.551-1.033-.75l-.116.164c.256.183.63.497 1.042.755.415.26.891.482 1.377.482v-.2zm-2.303-1.2C2.107 4.41 1.373 3.852.79 3.396l-.123.157c.585.459 1.323 1.018 3.913 2.897l.117-.162zM.79 3.395a.236.236 0 0 0-.262-.02.258.258 0 0 0-.127.227h.2c0-.03.014-.046.026-.053a.032.032 0 0 1 .018-.005c.006 0 .014.003.025.01l.12-.16zm-.39.207v5.18h.2v-5.18H.4zm0 5.18c0 .74.578 1.318 1.319 1.318v-.2C1.089 9.9.6 9.412.6 8.781H.4zM1.719 10.1H12.28v-.2H1.72v.2zm10.562 0A1.32 1.32 0 0 0 13.6 8.781h-.2A1.12 1.12 0 0 1 12.281 9.9v.2zM13.6 8.781v-5.18h-.2v5.18h.2zm0-5.18a.26.26 0 0 0-.414-.206l.12.16a.054.054 0 0 1 .06-.004c.022.011.034.03.034.05h.2zM6.996 6.85c.167.007.345-.042.52-.117a3.42 3.42 0 0 0 .524-.297c.17-.114.336-.239.485-.353.15-.115.28-.218.386-.292l-.115-.164c-.11.078-.246.185-.393.297-.148.114-.31.235-.475.346-.165.111-.333.21-.492.28a1.014 1.014 0 0 1-.432.1l-.008.2zm1.916-1.06c3.378-2.438 3.633-2.668 4.397-3.278l-.125-.156c-.76.608-1.013.835-4.389 3.272l.117.162zm4.39-3.273a.678.678 0 0 0 .298-.566h-.2a.48.48 0 0 1-.21.4l.112.166zm.298-.566V1.47h-.2v.482h.2zm0-.482C13.6.753 12.997.15 12.281.15v.2c.605 0 1.119.514 1.119 1.119h.2zM12.281.15H1.72v.2h10.56v-.2zM1.72.15A1.32 1.32 0 0 0 .4 1.469h.2C.6.862 1.09.35 1.719.35v-.2zM.4 1.469v.482h.2V1.47H.4zm0 .482c0 .227.086.441.273.566l.111-.167C.666 2.272.6 2.13.6 1.951H.4zm.266.56c.763.611 1.019.84 4.397 3.28l.117-.163C1.804 3.19 1.55 2.964.79 2.356l-.125.156zm4.397 3.28c.106.074.237.177.387.292.15.114.316.239.489.354.172.114.353.22.532.296.178.076.36.124.533.117l-.008-.2a1.064 1.064 0 0 1-.447-.101 3.178 3.178 0 0 1-.5-.28 8.812 8.812 0 0 1-.477-.345c-.147-.112-.283-.22-.393-.297l-.116.164z"/>
</svg>
