<svg width="14" height="10" fill="none" xmlns="http://www.w3.org/2000/svg">
    <path d="M12.281.25H1.72A1.22 1.22 0 0 0 .5 1.469V8.78c0 .687.533 1.22 1.219 1.22H12.28a1.22 1.22 0 0 0 1.219-1.219V1.47c0-.66-.559-1.219-1.219-1.219zm0 1.219v1.04c-.584.483-1.498 1.194-3.427 2.718-.432.33-1.27 1.142-1.854 1.117-.61.025-1.447-.787-1.879-1.117C3.191 3.703 2.277 2.992 1.72 2.51V1.469h10.56zM1.72 8.78V4.084c.558.457 1.396 1.117 2.64 2.107.559.432 1.55 1.397 2.641 1.372 1.066.025 2.031-.94 2.615-1.372a420.46 420.46 0 0 1 2.666-2.107v4.697H1.72z" fill="#000" fill-opacity=".5"/>
    <path d="M12.281 1.469h.1v-.1h-.1v.1zm0 1.04.064.078.036-.03V2.51h-.1zM8.854 5.228l.06.079.001-.001-.061-.078zM7 6.344l.004-.1h-.008l.004.1zM5.121 5.227l-.062.078.001.001.061-.08zM1.72 2.51h-.1v.046l.034.03.066-.076zm0-1.041v-.1h-.1v.1h.1zm0 7.312h-.1v.1h.1v-.1zm0-4.697.063-.077-.163-.134v.211h.1zm2.64 2.107-.062.079h.001l.061-.079zM7 7.563l.002-.1h-.004l.002.1zM9.615 6.19l.06.08.003-.001-.063-.079zm2.666-2.107h.1v-.205l-.161.126.061.079zm0 4.697v.1h.1v-.1h-.1zm0-8.631H1.72v.2h10.56v-.2zM1.72.15A1.32 1.32 0 0 0 .4 1.469h.2C.6.862 1.09.35 1.719.35v-.2zM.4 1.469V8.78h.2V1.47H.4zm0 7.312c0 .741.578 1.319 1.319 1.319v-.2C1.089 9.9.6 9.412.6 8.781H.4zM1.719 10.1H12.28v-.2H1.72v.2zm10.562 0A1.32 1.32 0 0 0 13.6 8.781h-.2A1.12 1.12 0 0 1 12.281 9.9v.2zM13.6 8.781V1.47h-.2v7.31h.2zm0-7.312C13.6.753 12.997.15 12.281.15v.2c.605 0 1.119.514 1.119 1.119h.2zm-1.419 0v1.04h.2V1.47h-.2zm.037.964c-.583.481-1.496 1.19-3.426 2.715l.123.157c1.929-1.522 2.845-2.235 3.43-2.718l-.127-.154zM8.793 5.147c-.11.084-.246.199-.393.32a8.854 8.854 0 0 1-.474.37 3.157 3.157 0 0 1-.493.299.958.958 0 0 1-.429.108l-.008.2c.168.007.347-.046.521-.127.176-.081.354-.195.525-.317.171-.123.337-.256.486-.379.15-.123.28-.234.386-.315l-.121-.159zM6.996 6.244c-.13.005-.28-.034-.445-.109a3.126 3.126 0 0 1-.5-.298 8.705 8.705 0 0 1-.476-.37c-.147-.121-.283-.236-.393-.32l-.122.159c.106.081.237.192.388.315.149.123.315.256.488.379.172.122.354.236.533.317.178.081.36.134.535.127l-.008-.2zM5.183 5.148C3.252 3.623 2.341 2.915 1.784 2.434l-.13.151c.56.485 1.477 1.198 3.405 2.72l.124-.157zM1.82 2.51V1.469h-.2v1.04h.2zm-.1-.941h10.56v-.2H1.72v.2zm.1 7.212V4.084h-.2v4.697h.2zm-.164-4.62c.56.458 1.399 1.119 2.642 2.109l.125-.157c-1.245-.99-2.082-1.65-2.64-2.106l-.127.154zm2.643 2.11c.271.209.67.567 1.128.861.46.297 1.001.544 1.576.53l-.004-.2c-.517.013-1.017-.21-1.464-.498-.45-.289-.826-.63-1.113-.852l-.123.159zm2.7 1.391c.563.014 1.092-.234 1.545-.53a8.27 8.27 0 0 0 .63-.462c.191-.153.358-.292.502-.398l-.12-.161c-.147.11-.32.253-.507.402a8.35 8.35 0 0 1-.614.452c-.442.288-.929.51-1.432.498l-.004.2zm2.68-1.392c1.243-.99 2.081-1.65 2.665-2.107l-.123-.158c-.585.457-1.423 1.118-2.667 2.108l.125.157zm2.503-2.186v4.697h.2V4.084h-.2zm.1 4.597H1.72v.2h10.56v-.2z" fill="currentColor" fill-opacity=".5"/>
</svg>
